<?xml version="1.0" encoding="UTF-8"?>
<svg width="48px" height="48px" viewBox="0 0 48 48" version="1.1" xmlns="http://www.w3.org/2000/svg" xmlns:xlink="http://www.w3.org/1999/xlink">
    <!-- Generator: Sketch 51.2 (57519) - http://www.bohemiancoding.com/sketch -->
    <title>send</title>
    <desc>Created with Sketch.</desc>
    <defs></defs>
    <g id="Page-1" stroke="none" stroke-width="1" fill="none" fill-rule="evenodd">
        <g id="send" fill="#226D9F">
            <path d="M46.09,0.2082 C46.7138459,-0.15305994 47.5124299,0.0598080602 47.8736899,0.68365506 C48.0310909,0.95546506 48.0852029,1.27491606 48.0260979,1.58340006 L40.5141979,40.7267001 L40.5141979,40.7266999 C40.3462189,41.5807939 39.5176639,42.1369999 38.6635679,41.9690199 C38.5899309,41.9545373 38.5174219,41.9348138 38.4465959,41.9099998 L26.7587959,37.5334998 L21.7765959,47.4960998 C21.5478329,47.9540548 20.9911389,48.1398508 20.5331859,47.9110888 C20.2189349,47.7541108 20.0204259,47.4329768 20.0204969,47.0816998 L20.0204969,36.4237998 L20.0204969,36.4238055 C20.0317266,35.5111975 20.3439119,34.6278255 20.9085939,33.9108055 C21.5568939,33.1701055 40.0103939,9.02080548 40.0103939,9.02080548 C40.0103939,9.02080548 15.2937939,31.1080055 14.3216939,31.8953055 C13.5115149,32.5786094 12.4041539,32.7910964 11.3985939,32.4562054 L0.8909939,28.8630054 C0.212795921,28.6312595 -0.149126079,27.8936035 0.0826219206,27.2154055 C0.184392921,26.9175745 0.390936921,26.6668815 0.663793921,26.5100055 L46.09,0.2082 Z" id="Shape"></path>
        </g>
    </g>
</svg>